<svg width="1833" height="870" viewBox="0 0 1833 870" fill="none" xmlns="http://www.w3.org/2000/svg">
<path d="M1570.84 328.141C1568.11 330.875 1563.67 330.875 1560.94 328.141C1558.21 325.407 1558.21 320.975 1560.94 318.242L1883.16 -3.98254L1893.06 5.91695L1570.84 328.141Z" fill="url(#paint0_linear)"/>
<path d="M1559.86 8.19785C1557.9 10.1505 1554.74 10.1505 1552.79 8.19786C1550.83 6.24524 1550.83 3.07942 1552.79 1.1268L1876.42 -322.512L1883.49 -315.44L1559.86 8.19785Z" fill="url(#paint1_linear)"/>
<path d="M1102.85 260.144C1100.12 262.878 1095.68 262.878 1092.95 260.144C1090.22 257.41 1090.22 252.978 1092.95 250.245L1415.17 -71.9796L1425.07 -62.0801L1102.85 260.144Z" fill="url(#paint2_linear)"/>
<path d="M1598.82 509.467C1597.65 510.638 1595.75 510.638 1594.57 509.467C1593.4 508.295 1593.4 506.396 1594.57 505.224L1919.63 180.171L1923.87 184.414L1598.82 509.467Z" fill="url(#paint3_linear)"/>
<path d="M1301.43 333.097C1300.25 334.269 1298.35 334.269 1297.18 333.097C1296.01 331.926 1296.01 330.026 1297.18 328.855L1622.23 3.80224L1626.48 8.04488L1301.43 333.097Z" fill="url(#paint4_linear)"/>
<path d="M1188.9 552.932C1186.17 555.666 1181.74 555.666 1179.01 552.932C1176.27 550.198 1176.27 545.766 1179.01 543.033L1512.01 210.027L1521.91 219.926L1188.9 552.932Z" fill="url(#paint5_linear)"/>
<path d="M1183.06 227.851C1181.11 229.804 1177.94 229.804 1175.99 227.851C1174.04 225.899 1174.04 222.733 1175.99 220.78L1510.41 -113.64L1517.48 -106.569L1183.06 227.851Z" fill="url(#paint6_linear)"/>
<path d="M714.324 491.526C711.591 494.26 707.158 494.26 704.425 491.526C701.691 488.792 701.691 484.36 704.425 481.626L1037.43 148.621L1047.33 158.52L714.324 491.526Z" fill="url(#paint7_linear)"/>
<path d="M1214.45 736.691C1213.28 737.863 1211.38 737.863 1210.21 736.691C1209.04 735.52 1209.04 733.62 1210.21 732.449L1546.04 396.614L1550.28 400.857L1214.45 736.691Z" fill="url(#paint8_linear)"/>
<path d="M915.063 562.315C913.892 563.487 911.992 563.487 910.821 562.315C909.649 561.144 909.649 559.244 910.821 558.073L1246.65 222.238L1250.9 226.481L915.063 562.315Z" fill="url(#paint9_linear)"/>
<rect x="50.6001" y="456" width="2.8" height="168" fill="url(#paint10_linear)"/>
<g filter="url(#filter0_d)">
<circle cx="52" cy="414" r="42" fill="#1A1B3A"/>
<circle cx="52" cy="414" r="41" stroke="#3085D5" stroke-width="2" stroke-dasharray="2 3"/>
</g>
<path fill-rule="evenodd" clip-rule="evenodd" d="M41.2377 430.8H62.7627C66.0702 430.8 68.8002 428.07 68.8002 424.763V403.238C68.8002 399.93 66.0702 397.2 62.7627 397.2H41.2377C37.9302 397.2 35.2002 399.93 35.2002 403.238V424.763C35.2002 428.07 37.9302 430.8 41.2377 430.8ZM37.8252 403.238C37.8252 401.348 39.3477 399.825 41.2377 399.825H62.7627C64.6527 399.825 66.1752 401.348 66.1752 403.238V424.763C66.1752 426.653 64.6527 428.175 62.7627 428.175H41.2377C39.3477 428.175 37.8252 426.653 37.8252 424.763V403.238Z" fill="#3085D5"/>
<path fill-rule="evenodd" clip-rule="evenodd" d="M39.73 420.41C39.3084 420.308 38.9922 419.897 39.0976 419.486C39.6246 416.818 41.6274 414.765 44.21 414.047C42.8924 413.328 41.9437 411.994 41.9437 410.403C41.9437 408.094 43.8411 406.246 46.1601 406.246C48.4792 406.246 50.3766 408.094 50.3766 410.403C50.3766 411.994 49.4806 413.328 48.1102 414.047C50.6928 414.765 52.6956 416.818 53.2227 419.538C53.3281 419.948 53.0118 420.359 52.5902 420.461H52.4321L39.73 420.41ZM61.392 408.35H55.8052C55.3309 408.35 54.962 408.966 54.962 409.377C54.962 409.787 55.3836 410.403 55.8052 410.403H61.392C61.8137 410.403 62.2353 409.787 62.2353 409.377C62.2353 408.966 61.8137 408.35 61.392 408.35ZM61.392 412.764H55.8052C55.3309 412.764 54.9092 413.328 54.962 413.79C54.962 414.201 55.3836 414.816 55.8052 414.816H61.392C61.8137 414.816 62.2353 414.252 62.2353 413.79C62.2353 413.379 61.8137 412.764 61.392 412.764ZM55.8052 419.23H64.08C64.5017 419.23 64.9233 418.614 64.9233 418.203C64.9233 417.793 64.5017 417.177 64.08 417.177H55.8052C55.3836 417.177 54.962 417.793 54.962 418.203C54.962 418.614 55.3836 419.23 55.8052 419.23Z" fill="#3085D5"/>
<circle cx="198.6" cy="461.6" r="5.6" fill="#7ED321"/>
<path fill-rule="evenodd" clip-rule="evenodd" d="M198.6 471.401C199.373 471.401 200 470.774 200 470.001C200 469.227 199.373 468.601 198.6 468.601C197.827 468.601 197.2 469.227 197.2 470.001C197.2 470.774 197.827 471.401 198.6 471.401ZM198.6 475.601C199.373 475.601 200 474.974 200 474.201C200 473.427 199.373 472.801 198.6 472.801C197.827 472.801 197.2 473.427 197.2 474.201C197.2 474.974 197.827 475.601 198.6 475.601ZM200 478.401C200 479.174 199.373 479.801 198.6 479.801C197.827 479.801 197.2 479.174 197.2 478.401C197.2 477.627 197.827 477.001 198.6 477.001C199.373 477.001 200 477.627 200 478.401ZM198.6 484.001C199.373 484.001 200 483.374 200 482.601C200 481.827 199.373 481.201 198.6 481.201C197.827 481.201 197.2 481.827 197.2 482.601C197.2 483.374 197.827 484.001 198.6 484.001ZM200 486.801C200 487.574 199.373 488.201 198.6 488.201C197.827 488.201 197.2 487.574 197.2 486.801C197.2 486.027 197.827 485.401 198.6 485.401C199.373 485.401 200 486.027 200 486.801ZM198.6 492.401C199.373 492.401 200 491.774 200 491.001C200 490.227 199.373 489.601 198.6 489.601C197.827 489.601 197.2 490.227 197.2 491.001C197.2 491.774 197.827 492.401 198.6 492.401ZM200 495.201C200 495.974 199.373 496.601 198.6 496.601C197.827 496.601 197.2 495.974 197.2 495.201C197.2 494.427 197.827 493.801 198.6 493.801C199.373 493.801 200 494.427 200 495.201ZM198.6 500.801C199.373 500.801 200 500.174 200 499.401C200 498.627 199.373 498.001 198.6 498.001C197.827 498.001 197.2 498.627 197.2 499.401C197.2 500.174 197.827 500.801 198.6 500.801ZM200 503.601C200 504.374 199.373 505.001 198.6 505.001C197.827 505.001 197.2 504.374 197.2 503.601C197.2 502.827 197.827 502.201 198.6 502.201C199.373 502.201 200 502.827 200 503.601ZM198.6 509.201C199.373 509.201 200 508.574 200 507.801C200 507.027 199.373 506.401 198.6 506.401C197.827 506.401 197.2 507.027 197.2 507.801C197.2 508.574 197.827 509.201 198.6 509.201ZM200 512.001C200 512.774 199.373 513.401 198.6 513.401C197.827 513.401 197.2 512.774 197.2 512.001C197.2 511.227 197.827 510.601 198.6 510.601C199.373 510.601 200 511.227 200 512.001ZM198.6 517.601C199.373 517.601 200 516.974 200 516.201C200 515.427 199.373 514.801 198.6 514.801C197.827 514.801 197.2 515.427 197.2 516.201C197.2 516.974 197.827 517.601 198.6 517.601ZM200 520.401C200 521.174 199.373 521.801 198.6 521.801C197.827 521.801 197.2 521.174 197.2 520.401C197.2 519.627 197.827 519.001 198.6 519.001C199.373 519.001 200 519.627 200 520.401ZM198.6 526.001C199.373 526.001 200 525.374 200 524.601C200 523.827 199.373 523.201 198.6 523.201C197.827 523.201 197.2 523.827 197.2 524.601C197.2 525.374 197.827 526.001 198.6 526.001ZM200 528.801C200 529.574 199.373 530.201 198.6 530.201C197.827 530.201 197.2 529.574 197.2 528.801C197.2 528.027 197.827 527.401 198.6 527.401C199.373 527.401 200 528.027 200 528.801ZM198.6 534.401C199.373 534.401 200 533.774 200 533.001C200 532.227 199.373 531.601 198.6 531.601C197.827 531.601 197.2 532.227 197.2 533.001C197.2 533.774 197.827 534.401 198.6 534.401ZM200 537.201C200 537.974 199.373 538.601 198.6 538.601C197.827 538.601 197.2 537.974 197.2 537.201C197.2 536.427 197.827 535.801 198.6 535.801C199.373 535.801 200 536.427 200 537.201ZM198.6 542.801C199.373 542.801 200 542.174 200 541.401C200 540.627 199.373 540.001 198.6 540.001C197.827 540.001 197.2 540.627 197.2 541.401C197.2 542.174 197.827 542.801 198.6 542.801ZM200 545.601C200 546.374 199.373 547.001 198.6 547.001C197.827 547.001 197.2 546.374 197.2 545.601C197.2 544.827 197.827 544.201 198.6 544.201C199.373 544.201 200 544.827 200 545.601ZM198.6 551.201C199.373 551.201 200 550.574 200 549.801C200 549.027 199.373 548.401 198.6 548.401C197.827 548.401 197.2 549.027 197.2 549.801C197.2 550.574 197.827 551.201 198.6 551.201ZM200 554.001C200 554.774 199.373 555.401 198.6 555.401C197.827 555.401 197.2 554.774 197.2 554.001C197.2 553.227 197.827 552.601 198.6 552.601C199.373 552.601 200 553.227 200 554.001ZM198.6 559.601C199.373 559.601 200 558.974 200 558.201C200 557.427 199.373 556.801 198.6 556.801C197.827 556.801 197.2 557.427 197.2 558.201C197.2 558.974 197.827 559.601 198.6 559.601ZM200 562.401C200 563.174 199.373 563.801 198.6 563.801C197.827 563.801 197.2 563.174 197.2 562.401C197.2 561.627 197.827 561.001 198.6 561.001C199.373 561.001 200 561.627 200 562.401ZM198.6 568.001C199.373 568.001 200 567.374 200 566.601C200 565.827 199.373 565.201 198.6 565.201C197.827 565.201 197.2 565.827 197.2 566.601C197.2 567.374 197.827 568.001 198.6 568.001Z" fill="url(#paint11_linear)"/>
<rect x="302.2" y="386" width="2.8" height="308" fill="url(#paint12_linear)"/>
<g filter="url(#filter1_d)">
<circle cx="305" cy="344" r="42" fill="#1A1B3A"/>
<circle cx="305" cy="344" r="41" stroke="#3085D5" stroke-width="2" stroke-dasharray="2 3"/>
</g>
<circle cx="394.6" cy="517.6" r="5.6" fill="#F8E71C"/>
<path fill-rule="evenodd" clip-rule="evenodd" d="M394.6 527.401C395.373 527.401 396 526.774 396 526.001C396 525.227 395.373 524.601 394.6 524.601C393.827 524.601 393.2 525.227 393.2 526.001C393.2 526.774 393.827 527.401 394.6 527.401ZM394.6 531.601C395.373 531.601 396 530.974 396 530.201C396 529.427 395.373 528.801 394.6 528.801C393.827 528.801 393.2 529.427 393.2 530.201C393.2 530.974 393.827 531.601 394.6 531.601ZM396 534.401C396 535.174 395.373 535.801 394.6 535.801C393.827 535.801 393.2 535.174 393.2 534.401C393.2 533.627 393.827 533.001 394.6 533.001C395.373 533.001 396 533.627 396 534.401ZM394.6 540.001C395.373 540.001 396 539.374 396 538.601C396 537.827 395.373 537.201 394.6 537.201C393.827 537.201 393.2 537.827 393.2 538.601C393.2 539.374 393.827 540.001 394.6 540.001ZM396 542.801C396 543.574 395.373 544.201 394.6 544.201C393.827 544.201 393.2 543.574 393.2 542.801C393.2 542.027 393.827 541.401 394.6 541.401C395.373 541.401 396 542.027 396 542.801ZM394.6 548.401C395.373 548.401 396 547.774 396 547.001C396 546.227 395.373 545.601 394.6 545.601C393.827 545.601 393.2 546.227 393.2 547.001C393.2 547.774 393.827 548.401 394.6 548.401ZM396 551.201C396 551.974 395.373 552.601 394.6 552.601C393.827 552.601 393.2 551.974 393.2 551.201C393.2 550.427 393.827 549.801 394.6 549.801C395.373 549.801 396 550.427 396 551.201ZM394.6 556.801C395.373 556.801 396 556.174 396 555.401C396 554.627 395.373 554.001 394.6 554.001C393.827 554.001 393.2 554.627 393.2 555.401C393.2 556.174 393.827 556.801 394.6 556.801ZM396 559.601C396 560.374 395.373 561.001 394.6 561.001C393.827 561.001 393.2 560.374 393.2 559.601C393.2 558.827 393.827 558.201 394.6 558.201C395.373 558.201 396 558.827 396 559.601ZM394.6 565.201C395.373 565.201 396 564.574 396 563.801C396 563.027 395.373 562.401 394.6 562.401C393.827 562.401 393.2 563.027 393.2 563.801C393.2 564.574 393.827 565.201 394.6 565.201ZM396 568.001C396 568.774 395.373 569.401 394.6 569.401C393.827 569.401 393.2 568.774 393.2 568.001C393.2 567.227 393.827 566.601 394.6 566.601C395.373 566.601 396 567.227 396 568.001ZM394.6 573.601C395.373 573.601 396 572.974 396 572.201C396 571.427 395.373 570.801 394.6 570.801C393.827 570.801 393.2 571.427 393.2 572.201C393.2 572.974 393.827 573.601 394.6 573.601ZM396 576.401C396 577.174 395.373 577.801 394.6 577.801C393.827 577.801 393.2 577.174 393.2 576.401C393.2 575.627 393.827 575.001 394.6 575.001C395.373 575.001 396 575.627 396 576.401ZM394.6 582.001C395.373 582.001 396 581.374 396 580.601C396 579.827 395.373 579.201 394.6 579.201C393.827 579.201 393.2 579.827 393.2 580.601C393.2 581.374 393.827 582.001 394.6 582.001ZM396 584.801C396 585.574 395.373 586.201 394.6 586.201C393.827 586.201 393.2 585.574 393.2 584.801C393.2 584.027 393.827 583.401 394.6 583.401C395.373 583.401 396 584.027 396 584.801ZM394.6 590.401C395.373 590.401 396 589.774 396 589.001C396 588.227 395.373 587.601 394.6 587.601C393.827 587.601 393.2 588.227 393.2 589.001C393.2 589.774 393.827 590.401 394.6 590.401ZM396 593.201C396 593.974 395.373 594.601 394.6 594.601C393.827 594.601 393.2 593.974 393.2 593.201C393.2 592.427 393.827 591.801 394.6 591.801C395.373 591.801 396 592.427 396 593.201ZM394.6 598.801C395.373 598.801 396 598.174 396 597.401C396 596.627 395.373 596.001 394.6 596.001C393.827 596.001 393.2 596.627 393.2 597.401C393.2 598.174 393.827 598.801 394.6 598.801ZM396 601.601C396 602.374 395.373 603.001 394.6 603.001C393.827 603.001 393.2 602.374 393.2 601.601C393.2 600.827 393.827 600.201 394.6 600.201C395.373 600.201 396 600.827 396 601.601ZM394.6 607.201C395.373 607.201 396 606.574 396 605.801C396 605.027 395.373 604.401 394.6 604.401C393.827 604.401 393.2 605.027 393.2 605.801C393.2 606.574 393.827 607.201 394.6 607.201ZM396 610.001C396 610.774 395.373 611.401 394.6 611.401C393.827 611.401 393.2 610.774 393.2 610.001C393.2 609.227 393.827 608.601 394.6 608.601C395.373 608.601 396 609.227 396 610.001ZM394.6 615.601C395.373 615.601 396 614.974 396 614.201C396 613.427 395.373 612.801 394.6 612.801C393.827 612.801 393.2 613.427 393.2 614.201C393.2 614.974 393.827 615.601 394.6 615.601ZM396 618.401C396 619.174 395.373 619.801 394.6 619.801C393.827 619.801 393.2 619.174 393.2 618.401C393.2 617.627 393.827 617.001 394.6 617.001C395.373 617.001 396 617.627 396 618.401ZM394.6 624.001C395.373 624.001 396 623.374 396 622.601C396 621.827 395.373 621.201 394.6 621.201C393.827 621.201 393.2 621.827 393.2 622.601C393.2 623.374 393.827 624.001 394.6 624.001ZM396 626.801C396 627.574 395.373 628.201 394.6 628.201C393.827 628.201 393.2 627.574 393.2 626.801C393.2 626.027 393.827 625.401 394.6 625.401C395.373 625.401 396 626.027 396 626.801ZM394.6 632.401C395.373 632.401 396 631.774 396 631.001C396 630.227 395.373 629.601 394.6 629.601C393.827 629.601 393.2 630.227 393.2 631.001C393.2 631.774 393.827 632.401 394.6 632.401ZM396 635.201C396 635.974 395.373 636.601 394.6 636.601C393.827 636.601 393.2 635.974 393.2 635.201C393.2 634.427 393.827 633.801 394.6 633.801C395.373 633.801 396 634.427 396 635.201ZM394.6 640.801C395.373 640.801 396 640.174 396 639.401C396 638.627 395.373 638.001 394.6 638.001C393.827 638.001 393.2 638.627 393.2 639.401C393.2 640.174 393.827 640.801 394.6 640.801ZM396 643.601C396 644.374 395.373 645.001 394.6 645.001C393.827 645.001 393.2 644.374 393.2 643.601C393.2 642.827 393.827 642.201 394.6 642.201C395.373 642.201 396 642.827 396 643.601ZM394.6 649.201C395.373 649.201 396 648.574 396 647.801C396 647.027 395.373 646.401 394.6 646.401C393.827 646.401 393.2 647.027 393.2 647.801C393.2 648.574 393.827 649.201 394.6 649.201ZM396 652.001C396 652.774 395.373 653.401 394.6 653.401C393.827 653.401 393.2 652.774 393.2 652.001C393.2 651.227 393.827 650.601 394.6 650.601C395.373 650.601 396 651.227 396 652.001ZM394.6 657.601C395.373 657.601 396 656.974 396 656.201C396 655.427 395.373 654.801 394.6 654.801C393.827 654.801 393.2 655.427 393.2 656.201C393.2 656.974 393.827 657.601 394.6 657.601ZM396 660.401C396 661.174 395.373 661.801 394.6 661.801C393.827 661.801 393.2 661.174 393.2 660.401C393.2 659.627 393.827 659.001 394.6 659.001C395.373 659.001 396 659.627 396 660.401ZM394.6 666.001C395.373 666.001 396 665.374 396 664.601C396 663.827 395.373 663.201 394.6 663.201C393.827 663.201 393.2 663.827 393.2 664.601C393.2 665.374 393.827 666.001 394.6 666.001ZM396 668.801C396 669.574 395.373 670.201 394.6 670.201C393.827 670.201 393.2 669.574 393.2 668.801C393.2 668.027 393.827 667.401 394.6 667.401C395.373 667.401 396 668.027 396 668.801ZM394.6 674.401C395.373 674.401 396 673.774 396 673.001C396 672.227 395.373 671.601 394.6 671.601C393.827 671.601 393.2 672.227 393.2 673.001C393.2 673.774 393.827 674.401 394.6 674.401ZM396 677.201C396 677.974 395.373 678.601 394.6 678.601C393.827 678.601 393.2 677.974 393.2 677.201C393.2 676.427 393.827 675.801 394.6 675.801C395.373 675.801 396 676.427 396 677.201ZM394.6 682.801C395.373 682.801 396 682.174 396 681.401C396 680.627 395.373 680.001 394.6 680.001C393.827 680.001 393.2 680.627 393.2 681.401C393.2 682.174 393.827 682.801 394.6 682.801ZM396 685.601C396 686.374 395.373 687.001 394.6 687.001C393.827 687.001 393.2 686.374 393.2 685.601C393.2 684.827 393.827 684.201 394.6 684.201C395.373 684.201 396 684.827 396 685.601ZM394.6 691.201C395.373 691.201 396 690.574 396 689.801C396 689.027 395.373 688.401 394.6 688.401C393.827 688.401 393.2 689.027 393.2 689.801C393.2 690.574 393.827 691.201 394.6 691.201Z" fill="url(#paint13_linear)"/>
<rect x="512.2" y="526" width="2.8" height="252" fill="url(#paint14_linear)"/>
<g filter="url(#filter2_d)">
<circle cx="515" cy="484" r="42" fill="#1A1B3A"/>
<circle cx="515" cy="484" r="41" stroke="#3085D5" stroke-width="2" stroke-dasharray="2 3"/>
</g>
<path fill-rule="evenodd" clip-rule="evenodd" d="M530.081 478.931C531.728 479.173 532.383 481.127 531.19 482.242L525.307 487.765C524.836 488.201 524.618 488.847 524.736 489.477L526.131 497.244C526.416 498.827 524.685 500.022 523.206 499.279L515.945 495.613C515.357 495.323 514.651 495.323 514.063 495.613L506.802 499.279C505.323 500.038 503.591 498.827 503.877 497.244L505.272 489.477C505.39 488.847 505.171 488.217 504.701 487.765L498.818 482.258C497.608 481.127 498.28 479.173 499.927 478.947L508.045 477.817C508.701 477.72 509.272 477.316 509.558 476.751L513.189 469.678C513.928 468.24 516.063 468.24 516.802 469.678L520.45 476.735C520.735 477.316 521.307 477.704 521.962 477.801L530.081 478.931ZM522.08 489.897C521.828 488.427 522.332 486.925 523.441 485.891H523.441L528.349 481.305L521.576 480.352C520.046 480.142 518.718 479.222 518.029 477.881L515.004 471.987L511.979 477.881C511.289 479.206 509.962 480.142 508.432 480.352L501.659 481.305L506.583 485.891C507.676 486.941 508.197 488.427 507.928 489.897L506.768 496.372L512.819 493.32C513.491 492.981 514.248 492.803 515.004 492.803C515.76 492.803 516.517 492.981 517.189 493.32L523.24 496.372L522.08 489.897Z" fill="#3085D5"/>
<path d="M517.138 490.104H512.862C512.19 490.104 511.64 489.499 511.64 488.76C511.64 488.021 512.19 487.416 512.862 487.416H517.138C517.81 487.416 518.36 488.021 518.36 488.76C518.36 489.499 517.81 490.104 517.138 490.104Z" fill="#3085D5"/>
<circle cx="618.6" cy="587.6" r="5.6" fill="#7ED321"/>
<path fill-rule="evenodd" clip-rule="evenodd" d="M618.6 597.401C619.373 597.401 620 596.774 620 596.001C620 595.227 619.373 594.601 618.6 594.601C617.827 594.601 617.2 595.227 617.2 596.001C617.2 596.774 617.827 597.401 618.6 597.401ZM618.6 601.601C619.373 601.601 620 600.974 620 600.201C620 599.427 619.373 598.801 618.6 598.801C617.827 598.801 617.2 599.427 617.2 600.201C617.2 600.974 617.827 601.601 618.6 601.601ZM620 604.401C620 605.174 619.373 605.801 618.6 605.801C617.827 605.801 617.2 605.174 617.2 604.401C617.2 603.627 617.827 603.001 618.6 603.001C619.373 603.001 620 603.627 620 604.401ZM618.6 610.001C619.373 610.001 620 609.374 620 608.601C620 607.827 619.373 607.201 618.6 607.201C617.827 607.201 617.2 607.827 617.2 608.601C617.2 609.374 617.827 610.001 618.6 610.001ZM620 612.801C620 613.574 619.373 614.201 618.6 614.201C617.827 614.201 617.2 613.574 617.2 612.801C617.2 612.027 617.827 611.401 618.6 611.401C619.373 611.401 620 612.027 620 612.801ZM618.6 618.401C619.373 618.401 620 617.774 620 617.001C620 616.227 619.373 615.601 618.6 615.601C617.827 615.601 617.2 616.227 617.2 617.001C617.2 617.774 617.827 618.401 618.6 618.401ZM620 621.201C620 621.974 619.373 622.601 618.6 622.601C617.827 622.601 617.2 621.974 617.2 621.201C617.2 620.427 617.827 619.801 618.6 619.801C619.373 619.801 620 620.427 620 621.201ZM618.6 626.801C619.373 626.801 620 626.174 620 625.401C620 624.627 619.373 624.001 618.6 624.001C617.827 624.001 617.2 624.627 617.2 625.401C617.2 626.174 617.827 626.801 618.6 626.801ZM620 629.601C620 630.374 619.373 631.001 618.6 631.001C617.827 631.001 617.2 630.374 617.2 629.601C617.2 628.827 617.827 628.201 618.6 628.201C619.373 628.201 620 628.827 620 629.601ZM618.6 635.201C619.373 635.201 620 634.574 620 633.801C620 633.027 619.373 632.401 618.6 632.401C617.827 632.401 617.2 633.027 617.2 633.801C617.2 634.574 617.827 635.201 618.6 635.201ZM620 638.001C620 638.774 619.373 639.401 618.6 639.401C617.827 639.401 617.2 638.774 617.2 638.001C617.2 637.227 617.827 636.601 618.6 636.601C619.373 636.601 620 637.227 620 638.001ZM618.6 643.601C619.373 643.601 620 642.974 620 642.201C620 641.427 619.373 640.801 618.6 640.801C617.827 640.801 617.2 641.427 617.2 642.201C617.2 642.974 617.827 643.601 618.6 643.601ZM620 646.401C620 647.174 619.373 647.801 618.6 647.801C617.827 647.801 617.2 647.174 617.2 646.401C617.2 645.627 617.827 645.001 618.6 645.001C619.373 645.001 620 645.627 620 646.401ZM618.6 652.001C619.373 652.001 620 651.374 620 650.601C620 649.827 619.373 649.201 618.6 649.201C617.827 649.201 617.2 649.827 617.2 650.601C617.2 651.374 617.827 652.001 618.6 652.001ZM620 654.801C620 655.574 619.373 656.201 618.6 656.201C617.827 656.201 617.2 655.574 617.2 654.801C617.2 654.027 617.827 653.401 618.6 653.401C619.373 653.401 620 654.027 620 654.801ZM618.6 660.401C619.373 660.401 620 659.774 620 659.001C620 658.227 619.373 657.601 618.6 657.601C617.827 657.601 617.2 658.227 617.2 659.001C617.2 659.774 617.827 660.401 618.6 660.401ZM620 663.201C620 663.974 619.373 664.601 618.6 664.601C617.827 664.601 617.2 663.974 617.2 663.201C617.2 662.427 617.827 661.801 618.6 661.801C619.373 661.801 620 662.427 620 663.201ZM618.6 668.801C619.373 668.801 620 668.174 620 667.401C620 666.627 619.373 666.001 618.6 666.001C617.827 666.001 617.2 666.627 617.2 667.401C617.2 668.174 617.827 668.801 618.6 668.801ZM620 671.601C620 672.374 619.373 673.001 618.6 673.001C617.827 673.001 617.2 672.374 617.2 671.601C617.2 670.827 617.827 670.201 618.6 670.201C619.373 670.201 620 670.827 620 671.601ZM618.6 677.201C619.373 677.201 620 676.574 620 675.801C620 675.027 619.373 674.401 618.6 674.401C617.827 674.401 617.2 675.027 617.2 675.801C617.2 676.574 617.827 677.201 618.6 677.201ZM620 680.001C620 680.774 619.373 681.401 618.6 681.401C617.827 681.401 617.2 680.774 617.2 680.001C617.2 679.227 617.827 678.601 618.6 678.601C619.373 678.601 620 679.227 620 680.001ZM618.6 685.601C619.373 685.601 620 684.974 620 684.201C620 683.427 619.373 682.801 618.6 682.801C617.827 682.801 617.2 683.427 617.2 684.201C617.2 684.974 617.827 685.601 618.6 685.601ZM620 688.401C620 689.174 619.373 689.801 618.6 689.801C617.827 689.801 617.2 689.174 617.2 688.401C617.2 687.627 617.827 687.001 618.6 687.001C619.373 687.001 620 687.627 620 688.401ZM618.6 694.001C619.373 694.001 620 693.374 620 692.601C620 691.827 619.373 691.201 618.6 691.201C617.827 691.201 617.2 691.827 617.2 692.601C617.2 693.374 617.827 694.001 618.6 694.001Z" fill="url(#paint15_linear)"/>
<rect x="723.6" y="372" width="2.8" height="420" fill="url(#paint16_linear)"/>
<g filter="url(#filter3_d)">
<circle cx="725" cy="330" r="42" fill="#1A1B3A"/>
<circle cx="725" cy="330" r="41" stroke="#3085D5" stroke-width="2" stroke-dasharray="2 3"/>
</g>
<path fill-rule="evenodd" clip-rule="evenodd" d="M723.177 332.594L722.459 333.294C722.603 333.67 722.675 334.119 722.657 334.532C722.657 335.393 722.352 336.272 721.67 336.954L720.558 338.048L720.504 338.12C719.176 339.394 717.077 339.376 715.785 338.048L709.183 331.446L709.129 331.356C707.873 330.01 707.891 327.911 709.183 326.601L710.313 325.471C710.941 324.843 711.802 324.484 712.699 324.484C713.13 324.484 713.525 324.556 713.919 324.682L721.042 317.559C720.863 317.128 720.809 316.734 720.809 316.339C720.809 315.46 721.132 314.599 721.778 313.917L722.908 312.769C723.536 312.159 724.379 311.8 725.276 311.8C726.155 311.8 726.999 312.123 727.68 312.769L734.265 319.425L734.337 319.479C734.947 320.161 735.252 321.004 735.252 321.847C735.252 322.708 734.929 323.569 734.265 324.233L733.152 325.364L733.099 325.399C732.166 326.314 730.784 326.584 729.564 326.117L728.864 326.853L740.616 338.73C741.37 339.483 741.8 340.506 741.8 341.565C741.8 342.605 741.405 343.664 740.616 344.417C739.88 345.189 738.858 345.619 737.799 345.601C736.723 345.619 735.682 345.189 734.947 344.417L723.177 332.594ZM722.244 319.192L715.552 325.938L721.221 331.625L727.896 324.897L722.244 319.192ZM736.364 342.964L724.594 331.141L727.411 328.306L739.199 340.165C739.575 340.542 739.773 341.08 739.773 341.565C739.773 342.085 739.575 342.605 739.199 342.964V342.982C738.84 343.359 738.32 343.574 737.799 343.556C737.297 343.574 736.777 343.395 736.364 342.964ZM710.331 345.009H723.751C724.541 345.009 725.186 344.363 725.186 343.574C725.186 342.785 724.541 342.139 723.751 342.139H710.331C709.542 342.139 708.896 342.785 708.896 343.574C708.896 344.363 709.542 345.009 710.331 345.009Z" fill="#3085D5"/>
<circle cx="828.6" cy="559.6" r="5.6" fill="#F8E71C"/>
<path fill-rule="evenodd" clip-rule="evenodd" d="M828.6 569.401C829.373 569.401 830 568.774 830 568.001C830 567.227 829.373 566.601 828.6 566.601C827.827 566.601 827.2 567.227 827.2 568.001C827.2 568.774 827.827 569.401 828.6 569.401ZM828.6 573.601C829.373 573.601 830 572.974 830 572.201C830 571.427 829.373 570.801 828.6 570.801C827.827 570.801 827.2 571.427 827.2 572.201C827.2 572.974 827.827 573.601 828.6 573.601ZM830 576.401C830 577.174 829.373 577.801 828.6 577.801C827.827 577.801 827.2 577.174 827.2 576.401C827.2 575.627 827.827 575.001 828.6 575.001C829.373 575.001 830 575.627 830 576.401ZM828.6 582.001C829.373 582.001 830 581.374 830 580.601C830 579.827 829.373 579.201 828.6 579.201C827.827 579.201 827.2 579.827 827.2 580.601C827.2 581.374 827.827 582.001 828.6 582.001ZM830 584.801C830 585.574 829.373 586.201 828.6 586.201C827.827 586.201 827.2 585.574 827.2 584.801C827.2 584.027 827.827 583.401 828.6 583.401C829.373 583.401 830 584.027 830 584.801ZM828.6 590.401C829.373 590.401 830 589.774 830 589.001C830 588.227 829.373 587.601 828.6 587.601C827.827 587.601 827.2 588.227 827.2 589.001C827.2 589.774 827.827 590.401 828.6 590.401ZM830 593.201C830 593.974 829.373 594.601 828.6 594.601C827.827 594.601 827.2 593.974 827.2 593.201C827.2 592.427 827.827 591.801 828.6 591.801C829.373 591.801 830 592.427 830 593.201ZM828.6 598.801C829.373 598.801 830 598.174 830 597.401C830 596.627 829.373 596.001 828.6 596.001C827.827 596.001 827.2 596.627 827.2 597.401C827.2 598.174 827.827 598.801 828.6 598.801ZM830 601.601C830 602.374 829.373 603.001 828.6 603.001C827.827 603.001 827.2 602.374 827.2 601.601C827.2 600.827 827.827 600.201 828.6 600.201C829.373 600.201 830 600.827 830 601.601ZM828.6 607.201C829.373 607.201 830 606.574 830 605.801C830 605.027 829.373 604.401 828.6 604.401C827.827 604.401 827.2 605.027 827.2 605.801C827.2 606.574 827.827 607.201 828.6 607.201ZM830 610.001C830 610.774 829.373 611.401 828.6 611.401C827.827 611.401 827.2 610.774 827.2 610.001C827.2 609.227 827.827 608.601 828.6 608.601C829.373 608.601 830 609.227 830 610.001ZM828.6 615.601C829.373 615.601 830 614.974 830 614.201C830 613.427 829.373 612.801 828.6 612.801C827.827 612.801 827.2 613.427 827.2 614.201C827.2 614.974 827.827 615.601 828.6 615.601ZM830 618.401C830 619.174 829.373 619.801 828.6 619.801C827.827 619.801 827.2 619.174 827.2 618.401C827.2 617.627 827.827 617.001 828.6 617.001C829.373 617.001 830 617.627 830 618.401ZM828.6 624.001C829.373 624.001 830 623.374 830 622.601C830 621.827 829.373 621.201 828.6 621.201C827.827 621.201 827.2 621.827 827.2 622.601C827.2 623.374 827.827 624.001 828.6 624.001ZM830 626.801C830 627.574 829.373 628.201 828.6 628.201C827.827 628.201 827.2 627.574 827.2 626.801C827.2 626.027 827.827 625.401 828.6 625.401C829.373 625.401 830 626.027 830 626.801ZM828.6 632.401C829.373 632.401 830 631.774 830 631.001C830 630.227 829.373 629.601 828.6 629.601C827.827 629.601 827.2 630.227 827.2 631.001C827.2 631.774 827.827 632.401 828.6 632.401ZM830 635.201C830 635.974 829.373 636.601 828.6 636.601C827.827 636.601 827.2 635.974 827.2 635.201C827.2 634.427 827.827 633.801 828.6 633.801C829.373 633.801 830 634.427 830 635.201ZM828.6 640.801C829.373 640.801 830 640.174 830 639.401C830 638.627 829.373 638.001 828.6 638.001C827.827 638.001 827.2 638.627 827.2 639.401C827.2 640.174 827.827 640.801 828.6 640.801ZM830 643.601C830 644.374 829.373 645.001 828.6 645.001C827.827 645.001 827.2 644.374 827.2 643.601C827.2 642.827 827.827 642.201 828.6 642.201C829.373 642.201 830 642.827 830 643.601ZM828.6 649.201C829.373 649.201 830 648.574 830 647.801C830 647.027 829.373 646.401 828.6 646.401C827.827 646.401 827.2 647.027 827.2 647.801C827.2 648.574 827.827 649.201 828.6 649.201ZM830 652.001C830 652.774 829.373 653.401 828.6 653.401C827.827 653.401 827.2 652.774 827.2 652.001C827.2 651.227 827.827 650.601 828.6 650.601C829.373 650.601 830 651.227 830 652.001ZM828.6 657.601C829.373 657.601 830 656.974 830 656.201C830 655.427 829.373 654.801 828.6 654.801C827.827 654.801 827.2 655.427 827.2 656.201C827.2 656.974 827.827 657.601 828.6 657.601ZM830 660.401C830 661.174 829.373 661.801 828.6 661.801C827.827 661.801 827.2 661.174 827.2 660.401C827.2 659.627 827.827 659.001 828.6 659.001C829.373 659.001 830 659.627 830 660.401ZM828.6 666.001C829.373 666.001 830 665.374 830 664.601C830 663.827 829.373 663.201 828.6 663.201C827.827 663.201 827.2 663.827 827.2 664.601C827.2 665.374 827.827 666.001 828.6 666.001ZM830 668.801C830 669.574 829.373 670.201 828.6 670.201C827.827 670.201 827.2 669.574 827.2 668.801C827.2 668.027 827.827 667.401 828.6 667.401C829.373 667.401 830 668.027 830 668.801ZM828.6 674.401C829.373 674.401 830 673.774 830 673.001C830 672.227 829.373 671.601 828.6 671.601C827.827 671.601 827.2 672.227 827.2 673.001C827.2 673.774 827.827 674.401 828.6 674.401ZM830 677.201C830 677.974 829.373 678.601 828.6 678.601C827.827 678.601 827.2 677.974 827.2 677.201C827.2 676.427 827.827 675.801 828.6 675.801C829.373 675.801 830 676.427 830 677.201ZM828.6 682.801C829.373 682.801 830 682.174 830 681.401C830 680.627 829.373 680.001 828.6 680.001C827.827 680.001 827.2 680.627 827.2 681.401C827.2 682.174 827.827 682.801 828.6 682.801ZM830 685.601C830 686.374 829.373 687.001 828.6 687.001C827.827 687.001 827.2 686.374 827.2 685.601C827.2 684.827 827.827 684.201 828.6 684.201C829.373 684.201 830 684.827 830 685.601ZM828.6 691.201C829.373 691.201 830 690.574 830 689.801C830 689.027 829.373 688.401 828.6 688.401C827.827 688.401 827.2 689.027 827.2 689.801C827.2 690.574 827.827 691.201 828.6 691.201ZM830 694.001C830 694.774 829.373 695.401 828.6 695.401C827.827 695.401 827.2 694.774 827.2 694.001C827.2 693.227 827.827 692.601 828.6 692.601C829.373 692.601 830 693.227 830 694.001ZM828.6 699.601C829.373 699.601 830 698.974 830 698.201C830 697.427 829.373 696.801 828.6 696.801C827.827 696.801 827.2 697.427 827.2 698.201C827.2 698.974 827.827 699.601 828.6 699.601ZM830 702.401C830 703.174 829.373 703.801 828.6 703.801C827.827 703.801 827.2 703.174 827.2 702.401C827.2 701.627 827.827 701.001 828.6 701.001C829.373 701.001 830 701.627 830 702.401ZM828.6 708.001C829.373 708.001 830 707.374 830 706.601C830 705.827 829.373 705.201 828.6 705.201C827.827 705.201 827.2 705.827 827.2 706.601C827.2 707.374 827.827 708.001 828.6 708.001ZM830 710.801C830 711.574 829.373 712.201 828.6 712.201C827.827 712.201 827.2 711.574 827.2 710.801C827.2 710.027 827.827 709.401 828.6 709.401C829.373 709.401 830 710.027 830 710.801ZM828.6 716.401C829.373 716.401 830 715.774 830 715.001C830 714.227 829.373 713.601 828.6 713.601C827.827 713.601 827.2 714.227 827.2 715.001C827.2 715.774 827.827 716.401 828.6 716.401ZM830 719.201C830 719.974 829.373 720.601 828.6 720.601C827.827 720.601 827.2 719.974 827.2 719.201C827.2 718.427 827.827 717.801 828.6 717.801C829.373 717.801 830 718.427 830 719.201ZM828.6 724.801C829.373 724.801 830 724.174 830 723.401C830 722.627 829.373 722.001 828.6 722.001C827.827 722.001 827.2 722.627 827.2 723.401C827.2 724.174 827.827 724.801 828.6 724.801ZM830 727.601C830 728.374 829.373 729.001 828.6 729.001C827.827 729.001 827.2 728.374 827.2 727.601C827.2 726.827 827.827 726.201 828.6 726.201C829.373 726.201 830 726.827 830 727.601ZM828.6 733.201C829.373 733.201 830 732.574 830 731.801C830 731.027 829.373 730.401 828.6 730.401C827.827 730.401 827.2 731.027 827.2 731.801C827.2 732.574 827.827 733.201 828.6 733.201ZM830 736.001C830 736.774 829.373 737.401 828.6 737.401C827.827 737.401 827.2 736.774 827.2 736.001C827.2 735.227 827.827 734.601 828.6 734.601C829.373 734.601 830 735.227 830 736.001ZM828.6 741.601C829.373 741.601 830 740.974 830 740.201C830 739.427 829.373 738.801 828.6 738.801C827.827 738.801 827.2 739.427 827.2 740.201C827.2 740.974 827.827 741.601 828.6 741.601ZM830 744.401C830 745.174 829.373 745.801 828.6 745.801C827.827 745.801 827.2 745.174 827.2 744.401C827.2 743.627 827.827 743.001 828.6 743.001C829.373 743.001 830 743.627 830 744.401ZM828.6 750.001C829.373 750.001 830 749.374 830 748.601C830 747.827 829.373 747.201 828.6 747.201C827.827 747.201 827.2 747.827 827.2 748.601C827.2 749.374 827.827 750.001 828.6 750.001ZM830 752.801C830 753.574 829.373 754.201 828.6 754.201C827.827 754.201 827.2 753.574 827.2 752.801C827.2 752.027 827.827 751.401 828.6 751.401C829.373 751.401 830 752.027 830 752.801ZM828.6 758.401C829.373 758.401 830 757.774 830 757.001C830 756.227 829.373 755.601 828.6 755.601C827.827 755.601 827.2 756.227 827.2 757.001C827.2 757.774 827.827 758.401 828.6 758.401ZM830 761.201C830 761.974 829.373 762.601 828.6 762.601C827.827 762.601 827.2 761.974 827.2 761.201C827.2 760.427 827.827 759.801 828.6 759.801C829.373 759.801 830 760.427 830 761.201ZM828.6 766.801C829.373 766.801 830 766.174 830 765.401C830 764.627 829.373 764.001 828.6 764.001C827.827 764.001 827.2 764.627 827.2 765.401C827.2 766.174 827.827 766.801 828.6 766.801ZM830 769.601C830 770.374 829.373 771.001 828.6 771.001C827.827 771.001 827.2 770.374 827.2 769.601C827.2 768.827 827.827 768.201 828.6 768.201C829.373 768.201 830 768.827 830 769.601ZM828.6 775.201C829.373 775.201 830 774.574 830 773.801C830 773.027 829.373 772.401 828.6 772.401C827.827 772.401 827.2 773.027 827.2 773.801C827.2 774.574 827.827 775.201 828.6 775.201Z" fill="url(#paint17_linear)"/>
<rect x="933.6" y="498" width="2.8" height="280" fill="url(#paint18_linear)"/>
<g filter="url(#filter4_d)">
<circle cx="935" cy="456" r="42" fill="#1A1B3A"/>
<circle cx="935" cy="456" r="41" stroke="#3085D5" stroke-width="2" stroke-dasharray="2 3"/>
</g>
<path fill-rule="evenodd" clip-rule="evenodd" d="M945.069 464.353C945.748 463.964 946.517 463.76 947.3 463.762C948.072 463.762 948.832 463.961 949.506 464.34C951.672 465.558 952.44 468.302 951.221 470.469C950.003 472.635 947.259 473.403 945.092 472.184C942.926 470.965 942.158 468.221 943.377 466.055L938.443 461.121C936.359 462.517 933.639 462.517 931.554 461.121L928.414 464.262C929.194 465.638 929.194 467.322 928.414 468.698C927.189 470.861 924.443 471.621 922.28 470.396C920.117 469.171 919.358 466.424 920.583 464.262C921.808 462.099 924.554 461.339 926.717 462.565L929.857 459.424C928.462 457.34 928.462 454.62 929.857 452.535L924.928 447.607C923.556 448.39 921.872 448.395 920.495 447.621C918.329 446.403 917.561 443.66 918.778 441.495C919.996 439.329 922.739 438.561 924.904 439.778C927.07 440.996 927.838 443.739 926.621 445.904L931.554 450.838C933.639 449.443 936.359 449.443 938.443 450.838L939.783 449.498C939.004 448.122 939.004 446.437 939.783 445.061C941.008 442.899 943.755 442.139 945.917 443.364C948.08 444.589 948.84 447.335 947.615 449.498C946.39 451.66 943.643 452.42 941.481 451.195L940.14 452.535C941.536 454.62 941.536 457.34 940.14 459.424L945.069 464.353ZM945.35 447.279C945.35 446.368 944.611 445.629 943.699 445.629L943.699 445.629C942.788 445.63 942.05 446.368 942.049 447.279V447.279C942.049 448.19 942.788 448.929 943.699 448.929C944.611 448.929 945.35 448.19 945.35 447.279ZM922.698 445.348C921.786 445.348 921.048 444.609 921.048 443.698C921.048 442.786 921.786 442.047 922.698 442.047C923.609 442.047 924.348 442.786 924.348 443.698V443.698C924.347 444.609 923.609 445.347 922.698 445.348L922.698 445.348ZM922.848 466.481C922.848 467.392 923.587 468.131 924.498 468.131L924.498 468.131C925.409 468.13 926.147 467.391 926.148 466.481V466.481C926.148 465.569 925.409 464.83 924.498 464.83C923.587 464.83 922.848 465.569 922.848 466.481ZM931.661 455.98C931.661 454.136 933.155 452.642 934.999 452.642C936.842 452.642 938.336 454.136 938.336 455.98C938.336 457.823 936.842 459.318 934.999 459.318C933.156 459.315 931.663 457.822 931.661 455.98ZM945.65 468.262C945.65 469.173 946.388 469.912 947.3 469.912L947.3 469.912C948.211 469.911 948.949 469.173 948.95 468.262V468.262C948.95 467.351 948.211 466.612 947.3 466.612C946.388 466.612 945.65 467.351 945.65 468.262Z" fill="#3085D5"/>
<defs>
<filter id="filter0_d" x="0" y="362" width="104" height="104" filterUnits="userSpaceOnUse" color-interpolation-filters="sRGB">
<feFlood flood-opacity="0" result="BackgroundImageFix"/>
<feColorMatrix in="SourceAlpha" type="matrix" values="0 0 0 0 0 0 0 0 0 0 0 0 0 0 0 0 0 0 127 0" result="hardAlpha"/>
<feOffset/>
<feGaussianBlur stdDeviation="5"/>
<feColorMatrix type="matrix" values="0 0 0 0 0.188235 0 0 0 0 0.521569 0 0 0 0 0.835294 0 0 0 0.4 0"/>
<feBlend mode="normal" in2="BackgroundImageFix" result="effect1_dropShadow"/>
<feBlend mode="normal" in="SourceGraphic" in2="effect1_dropShadow" result="shape"/>
</filter>
<filter id="filter1_d" x="253" y="292" width="104" height="104" filterUnits="userSpaceOnUse" color-interpolation-filters="sRGB">
<feFlood flood-opacity="0" result="BackgroundImageFix"/>
<feColorMatrix in="SourceAlpha" type="matrix" values="0 0 0 0 0 0 0 0 0 0 0 0 0 0 0 0 0 0 127 0" result="hardAlpha"/>
<feOffset/>
<feGaussianBlur stdDeviation="5"/>
<feColorMatrix type="matrix" values="0 0 0 0 0.188235 0 0 0 0 0.521569 0 0 0 0 0.835294 0 0 0 0.4 0"/>
<feBlend mode="normal" in2="BackgroundImageFix" result="effect1_dropShadow"/>
<feBlend mode="normal" in="SourceGraphic" in2="effect1_dropShadow" result="shape"/>
</filter>
<filter id="filter2_d" x="463" y="432" width="104" height="104" filterUnits="userSpaceOnUse" color-interpolation-filters="sRGB">
<feFlood flood-opacity="0" result="BackgroundImageFix"/>
<feColorMatrix in="SourceAlpha" type="matrix" values="0 0 0 0 0 0 0 0 0 0 0 0 0 0 0 0 0 0 127 0" result="hardAlpha"/>
<feOffset/>
<feGaussianBlur stdDeviation="5"/>
<feColorMatrix type="matrix" values="0 0 0 0 0.188235 0 0 0 0 0.521569 0 0 0 0 0.835294 0 0 0 0.4 0"/>
<feBlend mode="normal" in2="BackgroundImageFix" result="effect1_dropShadow"/>
<feBlend mode="normal" in="SourceGraphic" in2="effect1_dropShadow" result="shape"/>
</filter>
<filter id="filter3_d" x="673" y="278" width="104" height="104" filterUnits="userSpaceOnUse" color-interpolation-filters="sRGB">
<feFlood flood-opacity="0" result="BackgroundImageFix"/>
<feColorMatrix in="SourceAlpha" type="matrix" values="0 0 0 0 0 0 0 0 0 0 0 0 0 0 0 0 0 0 127 0" result="hardAlpha"/>
<feOffset/>
<feGaussianBlur stdDeviation="5"/>
<feColorMatrix type="matrix" values="0 0 0 0 0.188235 0 0 0 0 0.521569 0 0 0 0 0.835294 0 0 0 0.4 0"/>
<feBlend mode="normal" in2="BackgroundImageFix" result="effect1_dropShadow"/>
<feBlend mode="normal" in="SourceGraphic" in2="effect1_dropShadow" result="shape"/>
</filter>
<filter id="filter4_d" x="883" y="404" width="104" height="104" filterUnits="userSpaceOnUse" color-interpolation-filters="sRGB">
<feFlood flood-opacity="0" result="BackgroundImageFix"/>
<feColorMatrix in="SourceAlpha" type="matrix" values="0 0 0 0 0 0 0 0 0 0 0 0 0 0 0 0 0 0 127 0" result="hardAlpha"/>
<feOffset/>
<feGaussianBlur stdDeviation="5"/>
<feColorMatrix type="matrix" values="0 0 0 0 0.188235 0 0 0 0 0.521569 0 0 0 0 0.835294 0 0 0 0.4 0"/>
<feBlend mode="normal" in2="BackgroundImageFix" result="effect1_dropShadow"/>
<feBlend mode="normal" in="SourceGraphic" in2="effect1_dropShadow" result="shape"/>
</filter>
<linearGradient id="paint0_linear" x1="1565.89" y1="333.091" x2="1893.06" y2="5.91695" gradientUnits="userSpaceOnUse">
<stop stop-color="#3085D5" stop-opacity="0.12"/>
<stop offset="1" stop-color="#3085D5" stop-opacity="0.01"/>
</linearGradient>
<linearGradient id="paint1_linear" x1="1556.32" y1="11.7334" x2="1883.49" y2="-315.44" gradientUnits="userSpaceOnUse">
<stop stop-color="#3085D5" stop-opacity="0.12"/>
<stop offset="1" stop-color="#3085D5" stop-opacity="0.01"/>
</linearGradient>
<linearGradient id="paint2_linear" x1="1097.9" y1="265.094" x2="1425.07" y2="-62.0801" gradientUnits="userSpaceOnUse">
<stop stop-color="#3085D5" stop-opacity="0.12"/>
<stop offset="1" stop-color="#3085D5" stop-opacity="0.01"/>
</linearGradient>
<linearGradient id="paint3_linear" x1="1596.7" y1="511.588" x2="1923.87" y2="184.414" gradientUnits="userSpaceOnUse">
<stop stop-color="#3085D5" stop-opacity="0.12"/>
<stop offset="1" stop-color="#3085D5" stop-opacity="0.01"/>
</linearGradient>
<linearGradient id="paint4_linear" x1="1299.3" y1="335.219" x2="1626.48" y2="8.04488" gradientUnits="userSpaceOnUse">
<stop stop-color="#3085D5" stop-opacity="0.12"/>
<stop offset="1" stop-color="#3085D5" stop-opacity="0.01"/>
</linearGradient>
<linearGradient id="paint5_linear" x1="1183.96" y1="557.882" x2="1521.91" y2="219.926" gradientUnits="userSpaceOnUse">
<stop stop-color="#3085D5" stop-opacity="0.12"/>
<stop offset="1" stop-color="#3085D5" stop-opacity="0.01"/>
</linearGradient>
<linearGradient id="paint6_linear" x1="1179.52" y1="231.387" x2="1517.48" y2="-106.569" gradientUnits="userSpaceOnUse">
<stop stop-color="#3085D5" stop-opacity="0.12"/>
<stop offset="1" stop-color="#3085D5" stop-opacity="0.01"/>
</linearGradient>
<linearGradient id="paint7_linear" x1="709.375" y1="496.476" x2="1047.33" y2="158.52" gradientUnits="userSpaceOnUse">
<stop stop-color="#3085D5" stop-opacity="0.12"/>
<stop offset="1" stop-color="#3085D5" stop-opacity="0.01"/>
</linearGradient>
<linearGradient id="paint8_linear" x1="1212.33" y1="738.812" x2="1550.28" y2="400.857" gradientUnits="userSpaceOnUse">
<stop stop-color="#3085D5" stop-opacity="0.12"/>
<stop offset="1" stop-color="#3085D5" stop-opacity="0.01"/>
</linearGradient>
<linearGradient id="paint9_linear" x1="912.942" y1="564.437" x2="1250.9" y2="226.481" gradientUnits="userSpaceOnUse">
<stop stop-color="#3085D5" stop-opacity="0.12"/>
<stop offset="1" stop-color="#3085D5" stop-opacity="0.01"/>
</linearGradient>
<linearGradient id="paint10_linear" x1="50.6001" y1="456" x2="50.6001" y2="624" gradientUnits="userSpaceOnUse">
<stop stop-color="#3085D5"/>
<stop offset="1" stop-color="#3085D5" stop-opacity="0.01"/>
</linearGradient>
<linearGradient id="paint11_linear" x1="197.2" y1="468.601" x2="197.2" y2="568.001" gradientUnits="userSpaceOnUse">
<stop stop-color="#7ED321"/>
<stop offset="1" stop-color="#7ED321" stop-opacity="0.01"/>
</linearGradient>
<linearGradient id="paint12_linear" x1="302.2" y1="386" x2="302.2" y2="694" gradientUnits="userSpaceOnUse">
<stop stop-color="#3085D5"/>
<stop offset="1" stop-color="#3085D5" stop-opacity="0.01"/>
</linearGradient>
<linearGradient id="paint13_linear" x1="393.2" y1="524.601" x2="393.2" y2="691.201" gradientUnits="userSpaceOnUse">
<stop stop-color="#F8E71C"/>
<stop offset="1" stop-color="#F8E71C" stop-opacity="0.01"/>
</linearGradient>
<linearGradient id="paint14_linear" x1="512.2" y1="526" x2="512.2" y2="778" gradientUnits="userSpaceOnUse">
<stop stop-color="#3085D5"/>
<stop offset="1" stop-color="#3085D5" stop-opacity="0.01"/>
</linearGradient>
<linearGradient id="paint15_linear" x1="617.2" y1="594.601" x2="617.2" y2="694.001" gradientUnits="userSpaceOnUse">
<stop stop-color="#7ED321"/>
<stop offset="1" stop-color="#7ED321" stop-opacity="0.01"/>
</linearGradient>
<linearGradient id="paint16_linear" x1="723.6" y1="372" x2="723.6" y2="792" gradientUnits="userSpaceOnUse">
<stop stop-color="#3085D5"/>
<stop offset="1" stop-color="#3085D5" stop-opacity="0.01"/>
</linearGradient>
<linearGradient id="paint17_linear" x1="827.2" y1="566.601" x2="827.2" y2="775.201" gradientUnits="userSpaceOnUse">
<stop stop-color="#F8E71C"/>
<stop offset="1" stop-color="#F8E71C" stop-opacity="0.01"/>
</linearGradient>
<linearGradient id="paint18_linear" x1="933.6" y1="498" x2="933.6" y2="778" gradientUnits="userSpaceOnUse">
<stop stop-color="#3085D5"/>
<stop offset="1" stop-color="#3085D5" stop-opacity="0.01"/>
</linearGradient>
</defs>
</svg>
